<svg width="16" height="16" viewBox="0 0 16 16" fill="none" xmlns="http://www.w3.org/2000/svg">
<path fill-rule="evenodd" clip-rule="evenodd" d="M9.22396 1.55307C9.34225 1.61248 9.43215 1.71638 9.47395 1.84197C9.51576 1.96757 9.50605 2.10462 9.44696 2.22307L6.55996 8.00007L9.44796 13.7761C9.47798 13.8348 9.49607 13.899 9.50119 13.9647C9.50631 14.0305 9.49835 14.0967 9.47779 14.1594C9.45722 14.2221 9.42444 14.2801 9.38135 14.3301C9.33825 14.38 9.2857 14.421 9.2267 14.4505C9.16771 14.4801 9.10345 14.4977 9.03762 14.5023C8.97179 14.5069 8.90571 14.4985 8.84317 14.4774C8.78063 14.4563 8.72288 14.4231 8.67324 14.3796C8.6236 14.3362 8.58306 14.2833 8.55396 14.2241L5.55396 8.22407C5.51912 8.15454 5.50098 8.07784 5.50098 8.00007C5.50098 7.9223 5.51912 7.8456 5.55396 7.77607L8.55396 1.77607C8.61337 1.65778 8.71727 1.56788 8.84286 1.52608C8.96846 1.48427 9.10551 1.49398 9.22396 1.55307V1.55307Z" fill="white"/>
</svg>
