<svg width="16" height="16" viewBox="0 0 16 16" fill="none" xmlns="http://www.w3.org/2000/svg">
<path fill-rule="evenodd" clip-rule="evenodd" d="M6.77604 14.4469C6.65775 14.3875 6.56785 14.2836 6.52605 14.158C6.48424 14.0324 6.49395 13.8954 6.55304 13.7769L9.44004 7.99993L6.55204 2.22393C6.52202 2.16517 6.50393 2.10104 6.49881 2.03526C6.49369 1.96947 6.50165 1.90332 6.52222 1.84062C6.54278 1.77792 6.57556 1.71991 6.61865 1.66994C6.66175 1.61997 6.71431 1.57902 6.7733 1.54946C6.83229 1.51989 6.89656 1.5023 6.96238 1.49769C7.02821 1.49308 7.09429 1.50155 7.15683 1.5226C7.21937 1.54365 7.27712 1.57688 7.32676 1.62036C7.3764 1.66384 7.41694 1.71671 7.44604 1.77593L10.446 7.77593C10.4809 7.84546 10.499 7.92216 10.499 7.99993C10.499 8.0777 10.4809 8.1544 10.446 8.22393L7.44604 14.2239C7.38663 14.3422 7.28273 14.4321 7.15714 14.4739C7.03154 14.5157 6.89449 14.506 6.77604 14.4469V14.4469Z" fill="white"/>
</svg>
